HIERARCHY
ROOT RootJoint
{
    OFFSET   0.000000   0.000000   0.000000
    CHANNELS 6 Xposition Yposition Zposition Xrotation Yrotation Zrotation
    JOINT pelvis_lowerback
    {
        OFFSET   0.000000   0.093605   0.000000
        CHANNELS 3 Xrotation Yrotation Zrotation
        JOINT lowerback_torso
        {
            OFFSET   0.000000   0.100000   0.000000
            CHANNELS 3 Xrotation Yrotation Zrotation
            JOINT torso_head
            {
                OFFSET   0.000000   0.282350   0.000000
                CHANNELS 3 Xrotation Yrotation Zrotation
                End Site
                {
                    OFFSET   0.000000   0.192650   0.000000
                }
            }
            JOINT rTorso_Clavicle
            {
                OFFSET  -0.001000   0.157500   0.000000
                CHANNELS 3 Xrotation Yrotation Zrotation
                JOINT rShoulder
                {
                    OFFSET  -0.117647   0.000000   0.000000
                    CHANNELS 3 Xrotation Yrotation Zrotation
                    JOINT rElbow
                    {
                        OFFSET  -0.245000   0.000000   0.000000
                        CHANNELS 3 Xrotation Yrotation Zrotation
                        JOINT rWrist
                        {
                            OFFSET  -0.240000   0.000000   0.000000
                            CHANNELS 3 Xrotation Yrotation Zrotation
                            End Site
                            {
                                OFFSET  -0.116353  -0.002500   0.000000
                            }
                        }
                    }
                }
            }
            JOINT lTorso_Clavicle
            {
                OFFSET   0.001000   0.157500   0.000000
                CHANNELS 3 Xrotation Yrotation Zrotation
                JOINT lShoulder
                {
                    OFFSET   0.117647   0.000000   0.000000
                    CHANNELS 3 Xrotation Yrotation Zrotation
                    JOINT lElbow
                    {
                        OFFSET   0.245000   0.000000   0.000000
                        CHANNELS 3 Xrotation Yrotation Zrotation
                        JOINT lWrist
                        {
                            OFFSET   0.240000   0.000000   0.000000
                            CHANNELS 3 Xrotation Yrotation Zrotation
                            End Site
                            {
                                OFFSET   0.116353  -0.002500   0.000000
                            }
                        }
                    }
                }
            }
        }
    }
    JOINT rHip
    {
        OFFSET  -0.100000  -0.051395   0.000000
        CHANNELS 3 Xrotation Yrotation Zrotation
        JOINT rKnee
        {
            OFFSET   0.000000  -0.410000   0.000000
            CHANNELS 3 Xrotation Yrotation Zrotation
            JOINT rAnkle
            {
                OFFSET   0.000000  -0.390000   0.000000
                CHANNELS 3 Xrotation Yrotation Zrotation
                JOINT rToeJoint
                {
                    OFFSET   0.000000  -0.050000   0.130000
                    CHANNELS 3 Xrotation Yrotation Zrotation
                    End Site
                    {
                        OFFSET  -0.010000   0.002000   0.060000
                    }
                }
            }
        }
    }
    JOINT lHip
    {
        OFFSET   0.100000  -0.051395   0.000000
        CHANNELS 3 Xrotation Yrotation Zrotation
        JOINT lKnee
        {
            OFFSET   0.000000  -0.410000   0.000000
            CHANNELS 3 Xrotation Yrotation Zrotation
            JOINT lAnkle
            {
                OFFSET   0.000000  -0.390000   0.000000
                CHANNELS 3 Xrotation Yrotation Zrotation
                JOINT lToeJoint
                {
                    OFFSET   0.000000  -0.050000   0.130000
                    CHANNELS 3 Xrotation Yrotation Zrotation
                    End Site
                    {
                        OFFSET   0.010000   0.002000   0.060000
                    }
                }
            }
        }
    }
}
MOTION
Frames: 7
Frame Time:   0.008333
 -2.293618   0.898138   3.952227  12.722011 -11.845170   5.229332   8.983381  -5.601414  -0.381093   2.655231  -0.610388   2.141525  -0.139632  -0.239556   2.522704   3.655677 -27.486463   4.621038  24.907710  -3.379377  47.342692 179.994624  66.184354 -179.998648  -5.941239   5.649342  22.377150   6.788181  24.412120  -2.061656  28.615688  -1.563606 -41.015625 -179.997061 -62.780593 -179.998305  -4.108588  -9.185885 -20.025949 -30.542506  -0.010061 -10.808125  30.189874   0.000005   0.000283  -7.719000   0.529350   4.300513  -6.709234  -0.000084   0.000076 -18.329064   8.247849  -0.351527  22.945679   0.000207   0.000472 -17.335762   9.005002   5.747624   0.837136   0.000000  -0.000005
 -2.293722   0.898384   3.952506  12.832773 -11.880160   5.274365   8.887599  -5.558753  -0.395117   2.618948  -0.574747   2.132571  -0.201874  -0.238485   2.533917   3.725470 -27.493830   4.804924  24.933292  -3.365185  47.480838 179.995727  66.293964 -179.999233  -5.905765   5.592899  22.384557   6.834249  24.465326  -2.255914  28.556365  -1.496046 -41.073216 -179.997212 -62.656839 -179.998470  -4.099455  -9.181436 -20.139859 -30.554505   0.025566 -10.806895  30.021550  -0.000002   0.000224  -7.681676   0.571287   4.305512  -6.675559  -0.000069   0.000074 -18.302283   8.249881  -0.380213  22.718121   0.000194   0.000466 -17.233443   9.051926   5.721957   0.822092  -0.000003  -0.000004
 -2.293826   0.898639   3.952722  12.939789 -11.907545   5.314890   8.800439  -5.517063  -0.409591   2.591803  -0.542183   2.123363  -0.261277  -0.237246   2.543514   3.791988 -27.483496   4.958325  24.958825  -3.344943  47.596755 179.996683  66.390821 -179.999685  -5.878260   5.552264  22.458146   6.867541  24.494496  -2.414154  28.493346  -1.440897 -41.111126 -179.997416 -62.530904 -179.998631  -4.089783  -9.178196 -20.277924 -30.564466   0.057399 -10.802817  29.850164  -0.000007   0.000168  -7.636336   0.605385   4.304612  -6.643563  -0.000056   0.000072 -18.277606   8.248108  -0.405904  22.489383   0.000183   0.000452 -17.125682   9.093865   5.700162   0.809983  -0.000004  -0.000003
 -2.293934   0.898887   3.952892  13.043519 -11.929477   5.352479   8.722630  -5.478809  -0.425026   2.569984  -0.513098   2.113220  -0.316998  -0.235930   2.552088   3.851511 -27.468316   5.091050  24.980505  -3.324995  47.698714 179.997454  66.479429 179.999997  -5.854954   5.522094  22.543911   6.893619  24.514563  -2.550576  28.430532  -1.390659 -41.139930 -179.997648 -62.411137 -179.998789  -4.079930  -9.176221 -20.409418 -30.575333   0.087029 -10.797615  29.682582  -0.000010   0.000118  -7.589119   0.636133   4.301798  -6.611525  -0.000045   0.000070 -18.257889   8.244323  -0.428914  22.268279   0.000171   0.000430 -17.018273   9.131606   5.680191   0.799989  -0.000005  -0.000002
 -2.294045   0.899123   3.953029  13.143382 -11.947357   5.387619   8.653566  -5.443912  -0.441444   2.552656  -0.486992   2.101909  -0.368816  -0.234677   2.559829   3.905393 -27.452193   5.209133  24.999291  -3.306575  47.790648 179.998065  66.561334 179.999781  -5.834145   5.497897  22.626110   6.915713  24.530393  -2.672496  28.370140  -1.343766 -41.163665 -179.997888 -62.298834 -179.998943  -4.070234  -9.175200 -20.531275 -30.587188   0.115333 -10.791774  29.521685  -0.000012   0.000074  -7.542686   0.664746   4.298404  -6.579257  -0.000036   0.000069 -18.242733   8.239222  -0.449502  22.057819   0.000160   0.000403 -16.913868   9.165944   5.661696   0.791712  -0.000005  -0.000002
 -2.294159   0.899346   3.953142  13.239090 -11.961967   5.420519   8.592332  -5.411988  -0.458675   2.539244  -0.463391   2.089492  -0.416835  -0.233510   2.566832   3.954859 -27.436532   5.315969  25.016091  -3.289869  47.874625 179.998547  66.637412 179.999639  -5.814873   5.477000  22.702398   6.935380  24.543878  -2.783696  28.313058  -1.299811 -41.184248 -179.998124 -62.193974 -179.999090  -4.060825  -9.174880 -20.645589 -30.599777   0.142525 -10.785505  29.368572  -0.000013   0.000038  -7.498190   0.691602   4.294955  -6.546982  -0.000029   0.000068 -18.231405   8.233130  -0.467873  21.858791   0.000150   0.000372 -16.813616   9.197367   5.644518   0.784855  -0.000005  -0.000002
 -2.294277   0.899554   3.953235  13.330609 -11.973808   5.451318   8.538004  -5.382671  -0.476515   2.529172  -0.441923   2.076148  -0.461282  -0.232426   2.573169   4.000677 -27.421825   5.413563  25.031444  -3.274787  47.951860 179.998925  66.708252 179.999552  -5.796630   5.457995  22.773279   6.953369  24.555848  -2.886255  28.259545  -1.258614 -41.202646 -179.998348 -62.096212 -179.999228  -4.051742  -9.175083 -20.754203 -30.612857   0.168626 -10.778924  29.223531  -0.000013   0.000008  -7.456140   0.716842   4.291676  -6.514961  -0.000024   0.000067 -18.223251   8.226250  -0.484212  21.671098   0.000140   0.000341 -16.717978   9.226204   5.628549   0.779180  -0.000004  -0.000001
